<?xml version="1.0" encoding="UTF-8" standalone="no"?><!DOCTYPE svg PUBLIC "-//W3C//DTD SVG 1.1//EN" "http://www.w3.org/Graphics/SVG/1.1/DTD/svg11.dtd"><svg width="100%" height="100%" viewBox="0 0 250 204" version="1.1" xmlns="http://www.w3.org/2000/svg" xmlns:xlink="http://www.w3.org/1999/xlink" xml:space="preserve" xmlns:serif="http://www.serif.com/" style="fill-rule:evenodd;clip-rule:evenodd;stroke-linejoin:round;stroke-miterlimit:1.41421;"><path d="M78.62,203.59c94.34,0 145.94,-78.16 145.94,-145.94c0,-2.22 0,-4.43 -0.15,-6.63c10.038,-7.261 18.704,-16.251 25.59,-26.55c-9.361,4.148 -19.292,6.868 -29.46,8.07c10.705,-6.408 18.722,-16.495 22.55,-28.37c-10.068,5.974 -21.084,10.185 -32.57,12.45c-9.698,-10.313 -23.243,-16.168 -37.399,-16.168c-28.165,0 -51.34,23.176 -51.34,51.34c0,3.907 0.446,7.802 1.329,11.608c-41.22,-2.066 -79.678,-21.563 -105.71,-53.59c-13.537,23.304 -6.533,53.504 15.88,68.47c-8.162,-0.242 -16.148,-2.444 -23.28,-6.42c0,0.21 0,0.43 0,0.65c0.007,24.323 17.308,45.464 41.15,50.28c-7.551,2.059 -15.475,2.36 -23.16,0.88c6.703,20.842 26.031,35.209 47.92,35.62c-18.159,14.271 -40.604,22.023 -63.7,22c-4.081,-0.008 -8.158,-0.255 -12.21,-0.74c23.454,15.051 50.752,23.037 78.62,23" style="fill:#1da1f2;fill-rule:nonzero;"/></svg>